<svg width="277" height="55" viewBox="0 0 277 55" fill="none" xmlns="http://www.w3.org/2000/svg">
<path opacity="0.2" d="M35.2846 0.0961914H21.2943L0.772522 47.3192H14.7225L14.8435 47.0249L28.3903 34.2835H20.4073L35.2846 0.0961914Z" fill="#EA4335" fill-opacity="0.8"/>
<path d="M58.4072 47.223L37.8451 0H23.8951L44.4572 47.223H58.4072Z" fill="#EA4335"/>
<path d="M101.796 45.4209L99.6509 40.1169C99.5878 40.0149 99.4616 39.9639 99.3985 39.9639H83.4367C83.3106 39.9639 83.2475 40.0149 83.1844 40.1169L81.1024 45.4209C80.9762 45.7268 80.7239 45.8798 80.3453 45.8798H77.7587C77.5063 45.8798 77.317 45.8288 77.2539 45.7268C77.1278 45.6249 77.1278 45.4719 77.1909 45.2679L88.9887 16.0962C89.1148 15.7902 89.3672 15.6372 89.7457 15.6372H93.1526C93.5311 15.6372 93.7835 15.7902 93.9097 16.0962L105.771 45.2679C105.834 45.3189 105.834 45.4209 105.834 45.4719C105.834 45.5739 105.771 45.6758 105.644 45.7778C105.518 45.8798 105.392 45.9308 105.203 45.9308H102.616C102.174 45.9308 101.922 45.7778 101.796 45.4209ZM84.5724 37.4649H98.326C98.5152 37.4649 98.6414 37.3629 98.5152 37.2099L91.5753 19.5132C91.5122 19.4112 91.5123 19.3602 91.3861 19.3602C91.323 19.3602 91.2599 19.4112 91.1968 19.5132L84.2569 37.2099C84.32 37.3629 84.3831 37.4649 84.5724 37.4649Z" fill="#EA4335"/>
<path d="M105.141 46.3332H102.555C101.924 46.3332 101.482 46.0272 101.293 45.5682L99.2109 40.4173H83.6276L81.6088 45.5682C81.4195 46.0272 80.9779 46.3332 80.347 46.3332H77.7603C77.2555 46.3332 76.9401 46.1292 76.8139 45.9762C76.6877 45.8232 76.4985 45.5682 76.6877 45.1092L88.4856 15.8866C88.6748 15.4276 89.1165 15.1216 89.7474 15.1216H93.1542C93.7851 15.1216 94.2267 15.4276 94.416 15.8866L106.277 45.0582C106.34 45.1092 106.34 45.2622 106.34 45.4152C106.34 45.5682 106.277 45.8232 105.961 46.0272C105.709 46.2312 105.457 46.3332 105.141 46.3332ZM84.9525 37.0513H97.9491L91.4508 20.4765L84.9525 37.0513Z" fill="#EA4335"/>
<path d="M128.294 23.9861H130.692C131.134 23.9861 131.386 24.1901 131.386 24.5471V45.1509C131.386 48.3638 130.25 50.7608 127.916 52.2398C125.582 53.7188 122.427 54.4838 118.452 54.4838C117.695 54.4838 117.128 54.4838 116.749 54.4328C116.307 54.3818 116.055 54.1778 116.055 53.8208L116.181 52.0868C116.181 51.6788 116.434 51.5258 116.875 51.5768C120.661 51.7298 123.373 51.2708 125.077 50.2508C126.78 49.2308 127.6 47.4968 127.6 45.0489V43.5189C127.6 43.4169 127.537 43.3659 127.474 43.3659C127.411 43.3149 127.348 43.3659 127.285 43.4679C125.645 45.1509 123.31 46.0179 120.345 46.0179C118.011 46.0179 115.929 45.5079 114.162 44.4879C112.333 43.4679 111.134 42.0399 110.566 40.2039C110.125 39.0309 109.935 37.246 109.935 34.9C109.935 33.625 109.998 32.554 110.061 31.687C110.125 30.82 110.314 30.055 110.629 29.3411C111.26 27.6071 112.459 26.2301 114.099 25.1591C115.803 24.0881 117.822 23.5781 120.156 23.5781C123.247 23.5781 125.645 24.3941 127.348 26.0261C127.411 26.1281 127.474 26.1281 127.537 26.1281C127.6 26.0771 127.664 26.0261 127.664 25.9751V24.4961C127.6 24.1901 127.79 23.9861 128.294 23.9861ZM127.537 37.654C127.6 37.042 127.6 36.073 127.6 34.9C127.6 33.421 127.6 32.452 127.537 31.942C127.474 31.432 127.411 30.973 127.285 30.514C126.97 29.2901 126.276 28.3211 125.14 27.5051C124.004 26.6891 122.616 26.3321 120.85 26.3321C119.146 26.3321 117.758 26.7401 116.56 27.5051C115.424 28.2701 114.604 29.2901 114.099 30.514C113.721 31.432 113.595 32.86 113.595 34.849C113.595 36.94 113.784 38.4189 114.099 39.2349C114.478 40.4589 115.235 41.4279 116.434 42.2439C117.632 43.0599 119.083 43.4169 120.787 43.4169C122.553 43.4169 124.004 43.0089 125.077 42.2439C126.213 41.4789 126.907 40.4589 127.222 39.2349C127.411 38.8269 127.474 38.3169 127.537 37.654Z" fill="#EA4335"/>
<path d="M118.39 54.9477C117.633 54.9477 117.002 54.9477 116.623 54.8967C115.866 54.8457 115.424 54.4887 115.424 53.8767L115.551 52.1427C115.551 51.8367 115.677 51.5817 115.929 51.4287C116.181 51.2757 116.497 51.2247 116.875 51.2757C120.472 51.4287 123.121 50.9697 124.699 50.0008C126.276 49.0318 127.033 47.3998 127.033 45.1558V44.3908C125.33 45.8188 123.058 46.5328 120.282 46.5328C117.885 46.5328 115.677 46.0228 113.784 44.9518C111.891 43.8808 110.63 42.3508 109.936 40.4129C109.494 39.1889 109.305 37.4039 109.305 35.0069C109.305 33.732 109.368 32.661 109.431 31.743C109.494 30.825 109.746 30.009 109.999 29.295C110.693 27.51 111.891 26.031 113.658 24.9091C115.424 23.7871 117.569 23.2261 120.03 23.2261C122.932 23.2261 125.266 23.9401 127.033 25.3171V24.5521C127.033 23.9401 127.475 23.5831 128.232 23.5831H130.629C131.386 23.5831 131.828 23.9401 131.828 24.5521V45.1558C131.828 48.5218 130.566 51.0207 128.169 52.6017C125.834 54.1317 122.49 54.9477 118.39 54.9477ZM120.85 26.745C119.273 26.745 118.011 27.102 116.939 27.816C115.866 28.53 115.109 29.499 114.667 30.672C114.352 31.539 114.163 32.967 114.163 34.9049C114.163 36.9449 114.352 38.3729 114.667 39.1379C114.983 40.3109 115.74 41.2289 116.812 41.9429C117.885 42.6568 119.273 43.0138 120.85 43.0138C122.49 43.0138 123.815 42.6568 124.825 41.9429C125.897 41.2289 126.528 40.3109 126.781 39.1889C126.907 38.7809 126.97 38.2709 126.97 37.6589C127.033 37.0469 127.033 36.1289 127.033 34.9049C127.033 33.477 127.033 32.457 126.97 31.947C126.907 31.488 126.844 31.029 126.718 30.621C126.465 29.448 125.834 28.581 124.762 27.816C123.752 27.102 122.427 26.745 120.85 26.745Z" fill="#EA4335"/>
<path d="M154.223 42.7091C155.358 42.1481 156.305 41.3831 156.936 40.3631C156.999 40.2101 157.125 40.1081 157.314 40.0571C157.503 40.0061 157.693 40.0061 157.819 40.1081L159.396 40.8221C159.838 41.0261 159.901 41.2811 159.712 41.5361C158.828 42.9641 157.567 44.1371 155.863 45.004C154.16 45.871 152.141 46.279 149.743 46.279C147.22 46.279 145.138 45.82 143.434 44.851C141.731 43.8821 140.469 42.5561 139.712 40.8731C139.018 39.4451 138.703 37.4561 138.703 34.9062C138.703 33.6822 138.703 32.6622 138.766 31.9482C138.829 31.2342 138.955 30.5202 139.144 29.9082C139.775 28.0213 140.974 26.5423 142.803 25.4203C144.633 24.2983 146.841 23.7373 149.491 23.7373C152.582 23.7373 155.043 24.4003 156.809 25.6753C158.576 26.9503 159.712 28.7862 160.216 31.1832C160.406 32.1012 160.532 33.5292 160.532 35.5182C160.532 35.8752 160.279 36.0792 159.838 36.0792H142.677C142.488 36.0792 142.425 36.1302 142.425 36.2832C142.425 37.7111 142.551 38.7821 142.74 39.4451C143.119 40.7201 143.939 41.7911 145.201 42.5561C146.463 43.3211 148.04 43.7291 149.996 43.7291C151.699 43.5761 153.087 43.2701 154.223 42.7091ZM145.138 27.4093C144.002 28.1233 143.245 29.1432 142.867 30.3672C142.677 30.9282 142.488 31.9482 142.425 33.3252C142.425 33.4782 142.488 33.5292 142.677 33.5292H156.431C156.62 33.5292 156.683 33.4782 156.683 33.3252C156.62 32.0502 156.494 31.1322 156.368 30.5712C155.989 29.2962 155.169 28.2253 153.97 27.4603C152.772 26.6953 151.258 26.2873 149.428 26.2873C147.788 26.3383 146.273 26.6953 145.138 27.4093Z" fill="#EA4335"/>
<path d="M149.744 46.6858C147.157 46.6858 144.949 46.1758 143.119 45.2068C141.29 44.1868 140.028 42.8098 139.208 41.0249C138.514 39.5459 138.135 37.5059 138.135 34.9049C138.135 33.6809 138.135 32.661 138.198 31.896C138.261 31.131 138.387 30.417 138.64 29.754C139.271 27.816 140.596 26.184 142.488 25.0111C144.381 23.8381 146.778 23.2261 149.491 23.2261C152.709 23.2261 155.296 23.9401 157.125 25.266C158.955 26.643 160.154 28.53 160.658 31.029C160.848 31.947 160.974 33.4769 160.974 35.4149C160.974 36.0269 160.532 36.3839 159.775 36.3839H142.867C142.867 37.6589 142.993 38.6279 143.182 39.2399C143.561 40.4639 144.318 41.3818 145.454 42.0958C146.652 42.8098 148.103 43.1668 149.933 43.1668C151.447 43.1158 152.772 42.8608 153.845 42.3508C154.917 41.8408 155.737 41.0759 156.368 40.1579C156.494 39.9539 156.684 39.7499 156.999 39.6479C157.315 39.5459 157.693 39.5459 158.009 39.6989L159.523 40.3619C159.901 40.5149 160.09 40.7699 160.217 40.9739C160.28 41.1269 160.28 41.3818 160.09 41.6368C159.207 43.1158 157.882 44.3398 156.053 45.2068C154.349 46.2268 152.204 46.6858 149.744 46.6858ZM142.993 33.12H156.242C156.179 31.998 156.053 31.131 155.927 30.621C155.548 29.448 154.854 28.479 153.718 27.765C152.646 27.051 151.195 26.694 149.491 26.694C147.851 26.694 146.463 27.051 145.39 27.714C144.318 28.377 143.624 29.295 143.309 30.468C143.182 31.029 143.056 31.896 142.993 33.12Z" fill="#EA4335"/>
<path d="M186.155 25.7358C187.859 27.1128 188.679 28.8977 188.679 31.1927V45.3705C188.679 45.7275 188.427 45.9315 187.985 45.9315H185.588C185.146 45.9315 184.894 45.7275 184.894 45.3705V31.8047C184.894 30.1727 184.326 28.8977 183.127 27.8778C181.928 26.8578 180.414 26.3988 178.522 26.3988C176.692 26.3988 175.178 26.8068 173.979 27.6738C172.78 28.4897 172.086 29.6117 171.897 30.9887V45.4215C171.897 45.7785 171.645 45.9825 171.203 45.9825H168.806C168.364 45.9825 168.112 45.7785 168.112 45.4215V24.5628C168.112 24.2058 168.364 24.0018 168.806 24.0018H171.203C171.645 24.0018 171.897 24.2058 171.897 24.5628V26.1438C171.897 26.2458 171.96 26.2968 172.023 26.3478C172.086 26.3988 172.149 26.3478 172.213 26.2968C173.79 24.5628 176.187 23.6958 179.405 23.6958C182.244 23.6958 184.452 24.3588 186.155 25.7358Z" fill="#EA4335"/>
<path d="M188.042 46.3288H185.644C184.887 46.3288 184.446 45.9718 184.446 45.3598V31.794C184.446 30.264 183.941 29.091 182.805 28.173C181.733 27.255 180.345 26.796 178.578 26.796C176.875 26.796 175.487 27.204 174.414 27.969C173.279 28.734 172.711 29.754 172.522 30.978V45.3598C172.522 45.9718 172.08 46.3288 171.323 46.3288H168.926C168.169 46.3288 167.727 45.9718 167.727 45.3598V24.5521C167.727 23.9401 168.169 23.5831 168.926 23.5831H171.323C172.08 23.5831 172.522 23.9401 172.522 24.5521V25.3681C174.162 23.9401 176.496 23.2261 179.462 23.2261C182.427 23.2261 184.824 23.9401 186.591 25.3681C188.357 26.796 189.304 28.734 189.304 31.131V45.3088C189.241 45.9718 188.799 46.3288 188.042 46.3288Z" fill="#EA4335"/>
<path d="M200.654 44.6416C198.824 43.5706 197.562 42.0916 196.868 40.2557C196.427 38.9807 196.174 37.1957 196.174 34.9007C196.174 32.8098 196.427 31.0758 196.868 29.5968C197.499 27.8118 198.761 26.3838 200.591 25.2619C202.42 24.1909 204.692 23.6299 207.215 23.6299C209.802 23.6299 212.073 24.1399 213.966 25.2109C215.859 26.2818 217.12 27.6078 217.688 29.1888C217.814 29.5968 217.94 30.0048 218.004 30.3618V30.4638C218.004 30.7698 217.814 30.9738 217.373 31.0248L215.038 31.2288H214.849C214.534 31.2288 214.344 31.0758 214.218 30.7698C214.218 30.6678 214.155 30.4638 214.092 30.2598C213.777 29.1378 212.956 28.2198 211.758 27.4548C210.496 26.6898 208.982 26.2818 207.215 26.2818C205.449 26.2818 203.935 26.6898 202.736 27.4548C201.537 28.2198 200.78 29.2398 200.401 30.5148C200.086 31.6368 199.897 33.0648 199.897 34.9007C199.897 36.7877 200.086 38.2667 200.401 39.3377C200.78 40.6127 201.537 41.6837 202.736 42.4486C203.935 43.2136 205.449 43.6216 207.215 43.6216C208.982 43.6216 210.496 43.2646 211.758 42.4996C213.019 41.7857 213.777 40.8167 214.092 39.6947C214.155 39.6437 214.155 39.5417 214.155 39.4907L214.218 39.4397C214.281 39.0827 214.534 38.9297 215.038 38.9807L217.373 39.2867C217.814 39.3377 218.067 39.5417 218.004 39.9497L217.814 40.6637C217.31 42.3466 216.048 43.6726 214.092 44.7436C212.136 45.7636 209.865 46.3246 207.278 46.3246C204.692 46.2226 202.483 45.7126 200.654 44.6416Z" fill="#EA4335"/>
<path d="M207.28 46.6858C204.631 46.6858 202.296 46.1248 200.341 45.0028C198.385 43.8808 197.06 42.2998 196.366 40.3619C195.861 39.0359 195.672 37.1999 195.672 34.8539C195.672 32.763 195.924 30.927 196.366 29.448C197.06 27.561 198.385 26.031 200.341 24.9091C202.296 23.7871 204.631 23.2261 207.28 23.2261C209.993 23.2261 212.391 23.7871 214.347 24.9091C216.365 26.031 217.69 27.459 218.258 29.142C218.384 29.55 218.51 29.958 218.574 30.366V30.519C218.574 31.029 218.195 31.386 217.501 31.488L214.914 31.692C214.662 31.692 214.031 31.641 213.779 30.927V30.825C213.779 30.774 213.779 30.672 213.716 30.417C213.4 29.397 212.706 28.581 211.571 27.867C210.435 27.153 208.984 26.796 207.344 26.796C205.703 26.796 204.315 27.153 203.18 27.867C202.107 28.581 201.35 29.499 201.035 30.672C200.719 31.743 200.593 33.1709 200.593 34.9559C200.593 36.8429 200.719 38.2709 201.035 39.2909C201.35 40.5149 202.107 41.4838 203.18 42.1468C204.252 42.8608 205.703 43.2178 207.344 43.2178C208.984 43.2178 210.372 42.8608 211.571 42.1978C212.769 41.5348 213.463 40.6679 213.716 39.6479L213.842 39.2909C213.905 39.0869 214.031 38.8829 214.22 38.7299C214.473 38.5769 214.788 38.5259 215.23 38.5769L217.564 38.8829C218.321 38.9849 218.7 39.3929 218.637 39.9539L218.384 40.7699C217.816 42.5548 216.492 43.9828 214.473 45.1048C212.328 46.1248 209.93 46.6858 207.28 46.6858Z" fill="#EA4335"/>
<path d="M225.075 19.4143C224.571 19.0063 224.255 18.4453 224.255 17.7823C224.255 17.1193 224.507 16.6093 225.075 16.2013C225.58 15.7934 226.337 15.5894 227.157 15.5894C228.041 15.5894 228.735 15.7934 229.239 16.2013C229.744 16.6093 230.059 17.1193 230.059 17.7823C230.059 18.4453 229.807 19.0063 229.239 19.4143C228.735 19.8223 227.977 20.0263 227.157 20.0263C226.337 20.0773 225.643 19.8733 225.075 19.4143ZM225.328 45.373V24.5652C225.328 24.2083 225.58 24.0043 226.022 24.0043H228.419C228.861 24.0043 229.113 24.2083 229.113 24.5652V45.373C229.113 45.73 228.861 45.934 228.419 45.934H226.022C225.517 45.934 225.328 45.73 225.328 45.373Z" fill="#EA4335"/>
<path d="M228.418 46.3369H226.021C225.264 46.3369 224.822 45.9799 224.822 45.3679V24.5602C224.822 23.9482 225.264 23.5912 226.021 23.5912H228.418C229.175 23.5912 229.617 23.9482 229.617 24.5602V45.3679C229.617 45.9799 229.175 46.3369 228.418 46.3369ZM227.156 20.4802C226.147 20.4802 225.327 20.2252 224.696 19.7152C224.065 19.2052 223.75 18.5932 223.75 17.7772C223.75 17.0122 224.065 16.3493 224.696 15.8903C225.327 15.4313 226.147 15.1763 227.156 15.1763C228.166 15.1763 228.986 15.4313 229.617 15.8903C230.248 16.4003 230.563 17.0122 230.563 17.7772C230.563 18.5422 230.248 19.2052 229.617 19.7152C228.986 20.2252 228.166 20.4802 227.156 20.4802ZM227.156 15.9923C226.399 15.9923 225.831 16.1453 225.39 16.5023C224.948 16.8082 224.759 17.2672 224.759 17.7772C224.759 18.3382 224.948 18.7462 225.39 19.1032C225.831 19.4602 226.399 19.6132 227.093 19.6132C227.787 19.6132 228.355 19.4602 228.797 19.1032C229.238 18.7462 229.428 18.3382 229.428 17.7772C229.428 17.2162 229.238 16.8082 228.797 16.5023C228.481 16.1963 227.913 15.9923 227.156 15.9923Z" fill="#EA4335"/>
<path d="M244.694 19.3574C244 20.0714 243.621 21.2954 243.621 22.9784V23.7944C243.621 23.9474 243.684 23.9984 243.874 23.9984H249.678C250.12 23.9984 250.372 24.2024 250.372 24.5594V26.2424C250.372 26.5994 250.12 26.8034 249.678 26.8034H243.874C243.684 26.8034 243.621 26.8544 243.621 27.0074V45.3161C243.621 45.6731 243.369 45.8771 242.927 45.8771H240.593C240.151 45.8771 239.899 45.6731 239.899 45.3161V27.0074C239.899 26.8544 239.836 26.8034 239.647 26.8034H236.24C235.798 26.8034 235.546 26.5994 235.546 26.2424V24.5594C235.546 24.2024 235.798 23.9984 236.24 23.9984H239.647C239.836 23.9984 239.899 23.9474 239.899 23.7944V22.7744C239.899 20.9894 240.151 19.5614 240.656 18.5415C241.161 17.5215 242.044 16.7565 243.243 16.2975C244.505 15.8385 246.208 15.5835 248.416 15.5835H249.804C250.246 15.5835 250.498 15.7875 250.498 16.1445V17.7255C250.498 18.0825 250.246 18.2865 249.804 18.2865H248.732C246.776 18.2865 245.388 18.6435 244.694 19.3574Z" fill="#EA4335"/>
<path d="M242.928 46.3322H240.594C239.837 46.3322 239.395 45.9752 239.395 45.3632V27.2075H236.241C235.484 27.2075 235.042 26.8505 235.042 26.2385V24.5555C235.042 23.9435 235.484 23.5865 236.241 23.5865H239.395V22.7705C239.395 20.9345 239.648 19.4556 240.152 18.3846C240.72 17.2626 241.666 16.4466 242.991 15.8856C244.316 15.3756 246.083 15.1206 248.354 15.1206H249.742C250.499 15.1206 250.941 15.4776 250.941 16.0896V17.6706C250.941 18.2826 250.499 18.6396 249.742 18.6396H248.669C246.903 18.6396 245.641 18.9456 245.073 19.5576C244.442 20.1695 244.127 21.2915 244.127 22.9235V23.5355H249.679C250.436 23.5355 250.878 23.8925 250.878 24.5045V26.1875C250.878 26.7995 250.436 27.1565 249.679 27.1565H244.127V45.2612C244.127 45.9752 243.685 46.3322 242.928 46.3322Z" fill="#EA4335"/>
<path d="M255.484 54.0338V52.5038C255.484 52.1468 255.61 51.9428 255.862 51.9428H256.241C257.629 51.9428 258.701 51.7898 259.458 51.4838C260.215 51.1778 260.909 50.6168 261.414 49.8008C261.982 48.9848 262.55 47.7608 263.181 46.0779C263.244 46.0269 263.244 45.9249 263.181 45.8229L254.222 24.6581C254.159 24.6071 254.159 24.5051 254.159 24.4541C254.159 24.3521 254.222 24.2501 254.348 24.1481C254.474 24.0461 254.6 23.9951 254.79 23.9951H257.313C257.755 23.9951 258.007 24.1481 258.133 24.4541L265.073 41.4369C265.136 41.5389 265.136 41.5899 265.263 41.5899C265.326 41.5899 265.389 41.5389 265.452 41.4369L272.202 24.4541C272.329 24.1481 272.581 23.9951 272.96 23.9951H275.546C275.799 23.9951 275.988 24.0461 276.051 24.1481C276.177 24.2501 276.177 24.4031 276.114 24.6071L266.272 47.7608C265.389 49.6988 264.632 51.1268 263.875 52.0448C263.118 52.9628 262.171 53.6258 261.036 53.9828C259.9 54.3398 258.323 54.5438 256.304 54.5438H255.925C255.61 54.5948 255.484 54.3908 255.484 54.0338Z" fill="#EA4335"/>
<path d="M256.242 55.0001H255.863C255.674 55.0001 254.98 54.9491 254.98 54.0311V52.5011C254.98 51.5831 255.674 51.5321 255.863 51.5321H256.242C257.566 51.5321 258.576 51.3791 259.27 51.1241C259.964 50.8691 260.532 50.3592 261.036 49.5942C261.541 48.8292 262.172 47.6052 262.803 45.9732L253.781 24.8595C253.718 24.8085 253.718 24.6555 253.718 24.5025C253.718 24.2475 253.844 24.0435 254.097 23.8905C254.286 23.7375 254.601 23.6355 254.917 23.6355H257.44C258.071 23.6355 258.576 23.9415 258.765 24.4005L265.327 40.5163L271.762 24.3495C271.951 23.8905 272.393 23.5845 273.024 23.5845H275.61C276.115 23.5845 276.43 23.7885 276.557 23.9415C276.683 24.0945 276.809 24.3495 276.683 24.8085L266.841 48.0132C265.957 49.9512 265.137 51.4301 264.38 52.3991C263.56 53.3681 262.551 54.0821 261.352 54.4901C259.964 54.7961 258.324 55.0001 256.242 55.0001Z" fill="#EA4335"/>
</svg>
